<?xml version="1.0" standalone="no"?>
<!DOCTYPE svg
  PUBLIC '-//W3C//DTD SVG 1.1//EN'
  'http://www.w3.org/Graphics/SVG/1.1/DTD/svg11.dtd'>
<svg class="highcharts-root" style="font-family:&quot;lucida grande&quot;, &quot;lucida sans unicode&quot;, arial, helvetica, sans-serif;font-size:12px;" version="1.1" viewBox="0 0 800 600" xmlns="http://www.w3.org/2000/svg" xmlns:xlink="http://www.w3.org/1999/xlink">
	<desc>Created with Highcharts 5.0.7</desc>
	<defs>
		<clipPath id="highcharts-86ajo2q-7">
			<rect fill="none" height="539" width="780" x="0" y="0"/>
		</clipPath>
	</defs>
	<rect class="highcharts-background" fill="#ffffff" height="600" rx="0" ry="0" width="800" x="0" y="0"/>
	<rect class="highcharts-plot-background" fill="none" height="539" width="780" x="10" y="46"/>
	<rect class="highcharts-plot-border" fill="none" height="539" width="780" x="10" y="46"/>
	<g class="highcharts-series-group">
		<g class="highcharts-series highcharts-series-0 highcharts-pie-series highcharts-color-undefined " transform="translate(10,46) scale(1 1)">
			<path class="highcharts-point highcharts-color-0" d="M 389.9674733893699 110.30000331239955 A 159.7 159.7 0 0 1 391.08536503358766 429.6963117380732 L 390 270 A 0 0 0 0 0 390 270 Z" fill="#7cb5ec" stroke="#ffffff" stroke-linejoin="round" stroke-width="1"/>
			<path class="highcharts-point highcharts-color-1" d="M 390.9256682057832 429.6973172547767 A 159.7 159.7 0 0 1 253.22198154334978 187.56297150508004 L 390 270 A 0 0 0 0 0 390 270 Z" fill="#434348" stroke="#ffffff" stroke-linejoin="round" stroke-width="1"/>
			<path class="highcharts-point highcharts-color-2" d="M 253.3044869471087 187.42623472793056 A 159.7 159.7 0 0 1 354.3093622914598 114.33925228254324 L 390 270 A 0 0 0 0 0 390 270 Z" fill="#90ed7d" stroke="#ffffff" stroke-linejoin="round" stroke-width="1"/>
			<path class="highcharts-point highcharts-color-3" d="M 354.4650408585512 114.3036394811505 A 159.7 159.7 0 0 1 376.06173635233273 110.90941320590929 L 390 270 A 0 0 0 0 0 390 270 Z" fill="#f7a35c" stroke="#ffffff" stroke-linejoin="round" stroke-width="1"/>
			<path class="highcharts-point highcharts-color-4" d="M 376.22083388174303 110.89555448987142 A 159.7 159.7 0 0 1 384.82838415377194 110.38375900448276 L 390 270 A 0 0 0 0 0 390 270 Z" fill="#8085e9" stroke="#ffffff" stroke-linejoin="round" stroke-width="1"/>
			<path class="highcharts-point highcharts-color-5" d="M 384.9880029539725 110.37866719761232 A 159.7 159.7 0 0 1 389.77817990388996 110.30015405190599 L 390 270 A 0 0 0 0 0 390 270 Z" fill="#f15c80" stroke="#ffffff" stroke-linejoin="round" stroke-width="1"/>
		</g>
		<g class="highcharts-markers highcharts-series-0 highcharts-pie-series highcharts-color-undefined " transform="translate(10,46) scale(1 1)"/>
		<g class="highcharts-series highcharts-series-1 highcharts-pie-series highcharts-color-undefined " transform="translate(10,46) scale(1 1)">
			<path class="highcharts-point highcharts-color-0" d="M 389.95731009650547 60.40000434739474 A 209.6 209.6 0 0 1 427.0700803762602 476.29582918929214 L 412.2420482257561 393.7774975135753 A 125.76 125.76 0 0 0 389.9743860579033 144.24000260843684 Z" fill="rgb(175,232,255)" stroke="#ffffff" stroke-linejoin="round" stroke-width="0.5"/>
			<path class="highcharts-point highcharts-color-1" d="M 426.8637660464149 476.3327961155841 A 209.6 209.6 0 0 1 394.9872393817879 479.54065821064114 L 392.99234362907276 395.7243949263847 A 125.76 125.76 0 0 0 412.11825962784894 393.79967766935044 Z" fill="rgb(171,228,255)" stroke="#ffffff" stroke-linejoin="round" stroke-width="0.5"/>
			<path class="highcharts-point highcharts-color-2" d="M 394.7776962648813 479.54554067887136 A 209.6 209.6 0 0 1 392.89161836305885 479.5800528276544 L 391.73497101783533 395.74803169659265 A 125.76 125.76 0 0 0 392.8666177589288 395.72732440732284 Z" fill="rgb(167,224,255)" stroke="#ffffff" stroke-linejoin="round" stroke-width="0.5"/>
			<path class="highcharts-point highcharts-color-3" d="M 392.68203689935217 479.5828396555179 A 209.6 209.6 0 0 1 392.47245275360876 479.5854169005591 L 391.48347165216524 395.75125014033546 A 125.76 125.76 0 0 0 391.6092221396113 395.74970379331074 Z" fill="rgb(164,221,255)" stroke="#ffffff" stroke-linejoin="round" stroke-width="0.5"/>
			<path class="highcharts-point highcharts-color-4" d="M 392.2628661354128 479.58778456020093 A 209.6 209.6 0 0 1 392.2628661354128 479.58778456020093 L 391.3577196812477 395.75267073612054 A 125.76 125.76 0 0 0 391.3577196812477 395.75267073612054 Z" fill="rgb(160,217,255)" stroke="#ffffff" stroke-linejoin="round" stroke-width="0.5"/>
			<path class="highcharts-point highcharts-color-5" d="M 392.053277254351 479.5899426320757 A 209.6 209.6 0 0 1 392.0532772543509 479.5899426320757 L 391.2319663526106 395.7539655792454 A 125.76 125.76 0 0 0 391.2319663526106 395.7539655792454 Z" fill="rgb(156,213,255)" stroke="#ffffff" stroke-linejoin="round" stroke-width="0.5"/>
			<path class="highcharts-point highcharts-color-6" d="M 391.843686320012 479.5918911140252 A 209.6 209.6 0 0 1 391.843686320012 479.5918911140252 L 391.10621179200723 395.75513466841517 A 125.76 125.76 0 0 0 391.10621179200723 395.75513466841517 Z" fill="rgb(153,210,255)" stroke="#ffffff" stroke-linejoin="round" stroke-width="0.5"/>
			<path class="highcharts-point highcharts-color-7" d="M 391.6340935419869 479.5936300041011 A 209.6 209.6 0 0 1 391.843686320012 479.5918911140252 L 391.10621179200723 395.75513466841517 A 125.76 125.76 0 0 0 390.9804561251921 395.7561780024607 Z" fill="rgb(149,206,255)" stroke="#ffffff" stroke-linejoin="round" stroke-width="0.5"/>
			<path class="highcharts-point highcharts-color-8" d="M 391.6340935419869 479.5936300041011 A 209.6 209.6 0 0 1 391.63409354198683 479.5936300041011 L 390.9804561251921 395.7561780024607 A 125.76 125.76 0 0 0 390.9804561251921 395.7561780024607 Z" fill="rgb(145,202,255)" stroke="#ffffff" stroke-linejoin="round" stroke-width="0.5"/>
			<path class="highcharts-point highcharts-color-9" d="M 391.42449912986837 479.5951593005645 A 209.6 209.6 0 0 1 391.63409354198683 479.5936300041011 L 390.9804561251921 395.7561780024607 A 125.76 125.76 0 0 0 390.85469947792103 395.7570955803387 Z" fill="rgb(142,199,254)" stroke="#ffffff" stroke-linejoin="round" stroke-width="0.5"/>
			<path class="highcharts-point highcharts-color-0" d="M 391.42449912986837 479.5951593005645 A 209.6 209.6 0 0 1 391.42449912986837 479.5951593005645 L 390.85469947792103 395.7570955803387 A 125.76 125.76 0 0 0 390.85469947792103 395.7570955803387 Z" fill="rgb(138,195,250)" stroke="#ffffff" stroke-linejoin="round" stroke-width="0.5"/>
			<path class="highcharts-point highcharts-color-1" d="M 391.2149032932508 479.596479001886 A 209.6 209.6 0 0 1 391.42449912986837 479.5951593005645 L 390.85469947792103 395.7570955803387 A 125.76 125.76 0 0 0 390.7289419759505 395.7578874011316 Z" fill="rgb(134,191,246)" stroke="#ffffff" stroke-linejoin="round" stroke-width="0.5"/>
			<path class="highcharts-point highcharts-color-2" d="M 391.2149032932508 479.596479001886 A 209.6 209.6 0 0 1 391.42449912986837 479.5951593005645 L 390.85469947792103 395.7570955803387 A 125.76 125.76 0 0 0 390.7289419759505 395.7578874011316 Z" fill="rgb(131,188,243)" stroke="#ffffff" stroke-linejoin="round" stroke-width="0.5"/>
			<path class="highcharts-point highcharts-color-3" d="M 391.2149032932508 479.596479001886 A 209.6 209.6 0 0 1 391.42449912986837 479.5951593005645 L 390.85469947792103 395.7570955803387 A 125.76 125.76 0 0 0 390.7289419759505 395.7578874011316 Z" fill="rgb(127,184,239)" stroke="#ffffff" stroke-linejoin="round" stroke-width="0.5"/>
			<path class="highcharts-point highcharts-color-4" d="M 391.2149032932508 479.596479001886 A 209.6 209.6 0 0 1 294.66345901304834 456.6630760290939 L 332.798075407829 381.99784561745633 A 125.76 125.76 0 0 0 390.7289419759505 395.7578874011316 Z" fill="rgb(118,118,123)" stroke="#ffffff" stroke-linejoin="round" stroke-width="0.5"/>
			<path class="highcharts-point highcharts-color-5" d="M 294.4768436363963 456.56764617246614 A 209.6 209.6 0 0 1 234.31461846336362 410.33610360770297 L 296.58877107801817 354.2016621646218 A 125.76 125.76 0 0 0 332.6861061818378 381.94058770347965 Z" fill="rgb(116,116,121)" stroke="#ffffff" stroke-linejoin="round" stroke-width="0.5"/>
			<path class="highcharts-point highcharts-color-6" d="M 234.17436022582953 410.180348084068 A 209.6 209.6 0 0 1 199.35799911308243 357.1079072061344 L 275.6147994678495 322.26474432368065 A 125.76 125.76 0 0 0 296.5046161354977 354.1082088504408 Z" fill="rgb(115,115,120)" stroke="#ffffff" stroke-linejoin="round" stroke-width="0.5"/>
			<path class="highcharts-point highcharts-color-7" d="M 199.27098654138678 356.9172216830712 A 209.6 209.6 0 0 1 185.85247696635074 317.4968297807932 L 267.5114861798104 298.4980978684759 A 125.76 125.76 0 0 0 275.5625919248321 322.1503330098427 Z" fill="rgb(113,113,118)" stroke="#ffffff" stroke-linejoin="round" stroke-width="0.5"/>
			<path class="highcharts-point highcharts-color-8" d="M 185.80508221823908 317.2926585433712 A 209.6 209.6 0 0 1 181.6346258117321 292.71631218712895 L 264.98077548703924 283.62978731227736 A 125.76 125.76 0 0 0 267.48304933094346 298.37559512602274 Z" fill="rgb(112,112,117)" stroke="#ffffff" stroke-linejoin="round" stroke-width="0.5"/>
			<path class="highcharts-point highcharts-color-9" d="M 181.61201368600945 292.5079354895131 A 209.6 209.6 0 0 1 180.53275050118137 277.458645145042 L 264.3196503007088 274.4751870870252 A 125.76 125.76 0 0 0 264.9672082116057 283.5047612937079 Z" fill="rgb(111,111,116)" stroke="#ffffff" stroke-linejoin="round" stroke-width="0.5"/>
			<path class="highcharts-point highcharts-color-0" d="M 180.52539659089544 277.2491742011321 A 209.6 209.6 0 0 1 180.51695124566132 262.9991225844642 L 264.3101707473968 265.79947355067856 A 125.76 125.76 0 0 0 264.3152379545372 274.34950452067926 Z" fill="rgb(109,109,114)" stroke="#ffffff" stroke-linejoin="round" stroke-width="0.5" transform="translate(-10,0)"/>
			<path class="highcharts-point highcharts-color-1" d="M 180.52405686342567 262.7896430710622 A 209.6 209.6 0 0 1 181.43476225810076 249.19851914730467 L 264.86085735486046 257.5191114883828 A 125.76 125.76 0 0 0 264.3144341180554 265.6737858426373 Z" fill="rgb(108,108,113)" stroke="#ffffff" stroke-linejoin="round" stroke-width="0.5"/>
			<path class="highcharts-point highcharts-color-2" d="M 181.45566801809673 248.9899643450632 A 209.6 209.6 0 0 1 183.05740720695502 236.72954331404554 L 265.834444324173 250.03772598842733 A 125.76 125.76 0 0 0 264.873400810858 257.3939786070379 Z" fill="rgb(107,107,112)" stroke="#ffffff" stroke-linejoin="round" stroke-width="0.5"/>
			<path class="highcharts-point highcharts-color-3" d="M 183.09078112938369 236.5226173909699 A 209.6 209.6 0 0 1 185.11049883437565 225.81343742604992 L 267.06629930062536 243.48806245562994 A 125.76 125.76 0 0 0 265.8544686776302 249.91357043458194 Z" fill="rgb(105,105,110)" stroke="#ffffff" stroke-linejoin="round" stroke-width="0.5"/>
			<path class="highcharts-point highcharts-color-4" d="M 185.15478783432718 225.60857005231202 A 209.6 209.6 0 0 1 187.73899036012472 215.0214225406088 L 268.64339421607485 237.01285352436528 A 125.76 125.76 0 0 0 267.09287270059633 243.3651420313872 Z" fill="rgb(104,104,109)" stroke="#ffffff" stroke-linejoin="round" stroke-width="0.5"/>
			<path class="highcharts-point highcharts-color-5" d="M 187.7940700589174 214.81918905396554 A 209.6 209.6 0 0 1 190.80466590870262 204.78206629878235 L 270.48279954522155 230.8692397792694 A 125.76 125.76 0 0 0 268.6764420353504 236.89151343237933 Z" fill="rgb(103,103,108)" stroke="#ffffff" stroke-linejoin="round" stroke-width="0.5"/>
			<path class="highcharts-point highcharts-color-6" d="M 190.86998342919293 204.58290360685442 A 209.6 209.6 0 0 1 193.79230063677144 196.2795909493923 L 272.27538038206285 225.76775456963537 A 125.76 125.76 0 0 0 270.5219900575157 230.74974216411266 Z" fill="rgb(101,101,106)" stroke="#ffffff" stroke-linejoin="round" stroke-width="0.5"/>
			<path class="highcharts-point highcharts-color-7" d="M 193.8661191373768 196.08342014293183 A 209.6 209.6 0 0 1 196.97888013607275 188.29928221566576 L 274.1873280816436 220.97956932939945 A 125.76 125.76 0 0 0 272.3196714824261 225.65005208575909 Z" fill="rgb(100,100,105)" stroke="#ffffff" stroke-linejoin="round" stroke-width="0.5"/>
			<path class="highcharts-point highcharts-color-8" d="M 197.0606773507922 188.10630197832754 A 209.6 209.6 0 0 1 199.42902855870375 182.7368070494745 L 275.6574171352222 217.64208422968468 A 125.76 125.76 0 0 0 274.2364064104753 220.8637811869965 Z" fill="rgb(99,99,104)" stroke="#ffffff" stroke-linejoin="round" stroke-width="0.5"/>
			<path class="highcharts-point highcharts-color-9" d="M 199.51638702258816 182.54627974138788 A 209.6 209.6 0 0 1 202.0394359363628 177.2477150853989 L 277.22366156181766 214.34862905123936 A 125.76 125.76 0 0 0 275.7098322135529 217.52776784483274 Z" fill="rgb(97,97,102)" stroke="#ffffff" stroke-linejoin="round" stroke-width="0.5"/>
			<path class="highcharts-point highcharts-color-0" d="M 202.13228218609288 177.05980092880066 A 209.6 209.6 0 0 1 203.64330847974873 174.0659417848598 L 278.18598508784925 212.43956507091588 A 125.76 125.76 0 0 0 277.2793693116557 214.23588055728038 Z" fill="rgb(96,96,101)" stroke="#ffffff" stroke-linejoin="round" stroke-width="0.5"/>
			<path class="highcharts-point highcharts-color-1" d="M 203.73933570031284 173.87963309142413 A 209.6 209.6 0 0 1 204.7098363050242 172.02186347001145 L 278.8259017830145 211.21311808200687 A 125.76 125.76 0 0 0 278.2436014201877 212.3277798548545 Z" fill="rgb(95,95,100)" stroke="#ffffff" stroke-linejoin="round" stroke-width="0.5"/>
			<path class="highcharts-point highcharts-color-2" d="M 204.80790707029863 171.8366223262624 A 209.6 209.6 0 0 1 205.79878401403823 169.98964039014226 L 279.47927040842296 209.99378423408535 A 125.76 125.76 0 0 0 278.8847442421792 211.10197339575743 Z" fill="rgb(93,93,98)" stroke="#ffffff" stroke-linejoin="round" stroke-width="0.5"/>
			<path class="highcharts-point highcharts-color-3" d="M 205.89888645758 169.80548921003214 A 209.6 209.6 0 0 1 206.30113623894388 169.06988827462368 L 279.78068174336636 209.4419329647742 A 125.76 125.76 0 0 0 279.539331874548 209.8832935260193 Z" fill="rgb(92,92,97)" stroke="#ffffff" stroke-linejoin="round" stroke-width="0.5"/>
			<path class="highcharts-point highcharts-color-4" d="M 206.4021581832718 168.88623990653076 A 209.6 209.6 0 0 1 206.80808092587594 168.15265940664148 L 280.0848485555256 208.89159564398489 A 125.76 125.76 0 0 0 279.8412949099631 209.33174394391847 Z" fill="rgb(91,91,96)" stroke="#ffffff" stroke-linejoin="round" stroke-width="0.5"/>
			<path class="highcharts-point highcharts-color-5" d="M 206.9100198454466 167.9695184417654 A 209.6 209.6 0 0 1 207.31960540124356 167.23797671686958 L 280.3917632407462 208.34278603012174 A 125.76 125.76 0 0 0 280.14601190726796 208.78171106505923 Z" fill="rgb(89,89,94)" stroke="#ffffff" stroke-linejoin="round" stroke-width="0.5"/>
			<path class="highcharts-point highcharts-color-6" d="M 207.4224587475894 167.05534773372491 A 209.6 209.6 0 0 1 207.73211383945693 166.508079182154 L 280.63926830367416 207.90484750929238 A 125.76 125.76 0 0 0 280.4534752485536 208.23320864023495 Z" fill="rgb(88,88,93)" stroke="#ffffff" stroke-linejoin="round" stroke-width="0.5"/>
			<path class="highcharts-point highcharts-color-7" d="M 207.83569687696158 166.32586307232754 A 209.6 209.6 0 0 1 208.25184963129766 165.59803719490924 L 280.9511097787786 207.35882231694552 A 125.76 125.76 0 0 0 280.7014181261769 207.7955178433965 Z" fill="rgb(87,87,92)" stroke="#ffffff" stroke-linejoin="round" stroke-width="0.5"/>
			<path class="highcharts-point highcharts-color-8" d="M 208.35634245077003 165.41634127580895 A 209.6 209.6 0 0 1 208.56587291596753 165.05326337014975 L 281.1395237495805 207.03195802208984 A 125.76 125.76 0 0 0 281.013805470462 207.24980476548535 Z" fill="rgb(85,85,90)" stroke="#ffffff" stroke-linejoin="round" stroke-width="0.5"/>
			<path class="highcharts-point highcharts-color-9" d="M 208.67091035216222 164.8718817466687 A 209.6 209.6 0 0 1 208.98711021413735 164.32836836988304 L 281.3922661284824 206.59702102192983 A 125.76 125.76 0 0 0 281.2025462112973 206.92312904800121 Z" fill="rgb(84,84,89)" stroke="#ffffff" stroke-linejoin="round" stroke-width="0.5"/>
			<path class="highcharts-point highcharts-color-0" d="M 209.09287233459287 164.14740834607738 A 209.6 209.6 0 0 1 209.198815362161 163.96655417485454 L 281.5192892172966 206.37993250491274 A 125.76 125.76 0 0 0 281.4557234007557 206.48844500764645 Z" fill="rgb(83,83,88)" stroke="#ffffff" stroke-linejoin="round" stroke-width="0.5"/>
			<path class="highcharts-point highcharts-color-1" d="M 209.30493919089872 163.78580603706877 A 209.6 209.6 0 0 1 209.41124371468214 163.60516411346805 L 281.64674622880926 206.16309846808085 A 125.76 125.76 0 0 0 281.5829635145392 206.27148362224125 Z" fill="rgb(81,81,86)" stroke="#ffffff" stroke-linejoin="round" stroke-width="0.5"/>
			<path class="highcharts-point highcharts-color-2" d="M 209.5177288272068 163.4246285846944 A 209.6 209.6 0 0 1 209.73124039235898 163.06387743366355 L 281.8387442354154 205.83832646019812 A 125.76 125.76 0 0 0 281.7106372963241 206.05477715081662 Z" fill="rgb(80,80,85)" stroke="#ffffff" stroke-linejoin="round" stroke-width="0.5"/>
			<path class="highcharts-point highcharts-color-3" d="M 209.8382666314749 162.88366217215753 A 209.6 209.6 0 0 1 209.8382666314749 162.88366217215753 L 281.90295997888495 205.73019730329452 A 125.76 125.76 0 0 0 281.90295997888495 205.73019730329452 Z" fill="rgb(79,79,84)" stroke="#ffffff" stroke-linejoin="round" stroke-width="0.5"/>
			<path class="highcharts-point highcharts-color-4" d="M 209.9454730323092 162.70355402698044 A 209.6 209.6 0 0 1 209.94547303230925 162.70355402698038 L 281.96728381938556 205.6221324161882 A 125.76 125.76 0 0 0 281.9672838193855 205.62213241618826 Z" fill="rgb(77,77,82)" stroke="#ffffff" stroke-linejoin="round" stroke-width="0.5"/>
			<path class="highcharts-point highcharts-color-5" d="M 210.0528594876555 162.5235531782403 A 209.6 209.6 0 0 1 210.0528594876555 162.5235531782403 L 282.03171569259325 205.51413190694416 A 125.76 125.76 0 0 0 282.03171569259325 205.51413190694416 Z" fill="rgb(76,76,81)" stroke="#ffffff" stroke-linejoin="round" stroke-width="0.5"/>
			<path class="highcharts-point highcharts-color-6" d="M 210.16042589012727 162.3436598059381 A 209.6 209.6 0 0 1 210.16042589012727 162.3436598059381 L 282.09625553407636 205.40619588356284 A 125.76 125.76 0 0 0 282.09625553407636 205.40619588356284 Z" fill="rgb(75,75,80)" stroke="#ffffff" stroke-linejoin="round" stroke-width="0.5"/>
			<path class="highcharts-point highcharts-color-7" d="M 210.26817213215816 162.16387408996712 A 209.6 209.6 0 0 1 210.26817213215816 162.16387408996712 L 282.16090327929487 205.29832445398026 A 125.76 125.76 0 0 0 282.16090327929487 205.29832445398026 Z" fill="rgb(73,73,78)" stroke="#ffffff" stroke-linejoin="round" stroke-width="0.5"/>
			<path class="highcharts-point highcharts-color-8" d="M 210.37609810600193 161.98419621011305 A 209.6 209.6 0 0 1 210.376098106002 161.98419621011297 L 282.2256588636012 205.19051772606775 A 125.76 125.76 0 0 0 282.22565886360115 205.1905177260678 Z" fill="rgb(72,72,77)" stroke="#ffffff" stroke-linejoin="round" stroke-width="0.5"/>
			<path class="highcharts-point highcharts-color-9" d="M 210.4842037037327 161.80462634605368 A 209.6 209.6 0 0 1 210.4842037037327 161.80462634605368 L 282.2905222222396 205.0827758076322 A 125.76 125.76 0 0 0 282.2905222222396 205.0827758076322 Z" fill="rgb(71,71,76)" stroke="#ffffff" stroke-linejoin="round" stroke-width="0.5"/>
			<path class="highcharts-point highcharts-color-0" d="M 210.59248881724474 161.62516467735907 A 209.6 209.6 0 0 1 210.4842037037327 161.80462634605368 L 282.2905222222396 205.0827758076322 A 125.76 125.76 0 0 0 282.3554932903468 204.97509880641545 Z" fill="rgb(69,69,74)" stroke="#ffffff" stroke-linejoin="round" stroke-width="0.5"/>
			<path class="highcharts-point highcharts-color-1" d="M 210.59248881724474 161.62516467735907 A 209.6 209.6 0 0 1 210.4842037037327 161.80462634605368 L 282.2905222222396 205.0827758076322 A 125.76 125.76 0 0 0 282.3554932903468 204.97509880641545 Z" fill="rgb(68,68,73)" stroke="#ffffff" stroke-linejoin="round" stroke-width="0.5"/>
			<path class="highcharts-point highcharts-color-2" d="M 210.59248881724474 161.62516467735907 A 209.6 209.6 0 0 1 241.34781445644245 122.23434860183599 L 300.80868867386545 181.34060916110158 A 125.76 125.76 0 0 0 282.3554932903468 204.97509880641545 Z" fill="rgb(195,255,176)" stroke="#ffffff" stroke-linejoin="round" stroke-width="0.5"/>
			<path class="highcharts-point highcharts-color-3" d="M 241.49565440929956 122.08577032388735 A 209.6 209.6 0 0 1 267.8078446715985 99.70250390507852 L 316.6847068029591 167.8215023430471 A 125.76 125.76 0 0 0 300.8973926455797 181.25146219433242 Z" fill="rgb(192,255,173)" stroke="#ffffff" stroke-linejoin="round" stroke-width="0.5"/>
			<path class="highcharts-point highcharts-color-4" d="M 267.97820323538315 99.5803969188564 A 209.6 209.6 0 0 1 289.62481760523747 85.9973294780259 L 329.7748905631425 159.59839768681553 A 125.76 125.76 0 0 0 316.7869219412299 167.74823815131384 Z" fill="rgb(190,255,171)" stroke="#ffffff" stroke-linejoin="round" stroke-width="0.5"/>
			<path class="highcharts-point highcharts-color-5" d="M 289.80887043267944 85.8970463136879 A 209.6 209.6 0 0 1 304.650364022738 78.56437207628028 L 338.7902184136428 155.13862324576814 A 125.76 125.76 0 0 0 329.8853222596076 159.53822778821274 Z" fill="rgb(188,255,169)" stroke="#ffffff" stroke-linejoin="round" stroke-width="0.5"/>
			<path class="highcharts-point highcharts-color-6" d="M 304.84184229357027 78.4791181723339 A 209.6 209.6 0 0 1 311.98478228990865 75.46006629576783 L 343.1908693739452 153.2760397774607 A 125.76 125.76 0 0 0 338.90510537614216 155.08747090340034 Z" fill="rgb(186,255,167)" stroke="#ffffff" stroke-linejoin="round" stroke-width="0.5"/>
			<path class="highcharts-point highcharts-color-7" d="M 312.1793611987952 75.382148361019 A 209.6 209.6 0 0 1 318.64295419531425 72.92049316575816 L 347.1857725171885 151.75229589945488 A 125.76 125.76 0 0 0 343.3076167192771 153.2292890166114 Z" fill="rgb(184,255,165)" stroke="#ffffff" stroke-linejoin="round" stroke-width="0.5"/>
			<path class="highcharts-point highcharts-color-8" d="M 318.8400693478219 72.84923467159149 A 209.6 209.6 0 0 1 325.18424796298586 70.67343807741958 L 351.1105487777915 150.40406284645172 A 125.76 125.76 0 0 0 347.3040416086931 151.7095408029549 Z" fill="rgb(182,255,163)" stroke="#ffffff" stroke-linejoin="round" stroke-width="0.5"/>
			<path class="highcharts-point highcharts-color-9" d="M 325.38360689956073 70.60872199945783 A 209.6 209.6 0 0 1 329.7854977075224 69.23552676414783 L 353.87129862451343 149.5413160584887 A 125.76 125.76 0 0 0 351.2301641397364 150.36523319967466 Z" fill="rgb(180,255,161)" stroke="#ffffff" stroke-linejoin="round" stroke-width="0.5"/>
			<path class="highcharts-point highcharts-color-0" d="M 329.9862922545462 69.17541265411933 A 209.6 209.6 0 0 1 333.0052995177057 68.29783313773359 L 355.8031797106234 148.97869988264017 A 125.76 125.76 0 0 0 353.9917753527277 149.5052475924716 Z" fill="rgb(178,255,159)" stroke="#ffffff" stroke-linejoin="round" stroke-width="0.5"/>
			<path class="highcharts-point highcharts-color-1" d="M 333.2070301482989 68.24093929782543 A 209.6 209.6 0 0 1 335.0251372807452 67.73798065628068 L 357.0150823684471 148.6427883937684 A 125.76 125.76 0 0 0 355.92421808897933 148.94456357869524 Z" fill="rgb(175,255,156)" stroke="#ffffff" stroke-linejoin="round" stroke-width="0.5"/>
			<path class="highcharts-point highcharts-color-2" d="M 335.22742675380766 67.68310693372516 A 209.6 209.6 0 0 1 336.8476973470141 67.2514051277164 L 358.1086184082085 148.35084307662981 A 125.76 125.76 0 0 0 357.13645605228464 148.60986416023508 Z" fill="rgb(173,255,154)" stroke="#ffffff" stroke-linejoin="round" stroke-width="0.5"/>
			<path class="highcharts-point highcharts-color-3" d="M 337.05047248424415 67.1983542082111 A 209.6 209.6 0 0 1 338.6745627207372 66.78125212448421 L 359.20473763244235 148.0687512746905 A 125.76 125.76 0 0 0 358.23028349054647 148.31901252492665 Z" fill="rgb(171,255,152)" stroke="#ffffff" stroke-linejoin="round" stroke-width="0.5"/>
			<path class="highcharts-point highcharts-color-4" d="M 338.8778070974595 66.73002830512462 A 209.6 209.6 0 0 1 340.09833980663444 66.42695583661899 L 360.05900388398067 147.8561735019714 A 125.76 125.76 0 0 0 359.3266842584757 148.03801698307478 Z" fill="rgb(169,255,150)" stroke="#ffffff" stroke-linejoin="round" stroke-width="0.5"/>
			<path class="highcharts-point highcharts-color-5" d="M 340.3019377676971 66.37715597125614 A 209.6 209.6 0 0 1 340.91302902459324 66.2289783103113 L 360.54781741475597 147.73738698618678 A 125.76 125.76 0 0 0 360.18116266061827 147.8262935827537 Z" fill="rgb(167,255,148)" stroke="#ffffff" stroke-linejoin="round" stroke-width="0.5"/>
			<path class="highcharts-point highcharts-color-6" d="M 341.1168245558046 66.17999323301942 A 209.6 209.6 0 0 1 341.5245620638969 66.08263458718622 L 360.91473723833815 147.64958075231175 A 125.76 125.76 0 0 0 360.67009473348276 147.70799593981164 Z" fill="rgb(165,255,146)" stroke="#ffffff" stroke-linejoin="round" stroke-width="0.5"/>
			<path class="highcharts-point highcharts-color-7" d="M 341.72850363304053 66.03426111600356 A 209.6 209.6 0 0 1 341.9324934736763 65.98609161054281 L 361.1594960842058 147.59165496632568 A 125.76 125.76 0 0 0 361.0371021798243 147.62055666960214 Z" fill="rgb(163,255,144)" stroke="#ffffff" stroke-linejoin="round" stroke-width="0.5"/>
			<path class="highcharts-point highcharts-color-8" d="M 342.13653138181473 65.93812611897346 A 209.6 209.6 0 0 1 342.34061715341767 65.89036468926096 L 361.4043702920506 147.53421881355658 A 125.76 125.76 0 0 0 361.28191882908885 147.56287567138406 Z" fill="rgb(161,254,142)" stroke="#ffffff" stroke-linejoin="round" stroke-width="0.5"/>
			<path class="highcharts-point highcharts-color-9" d="M 342.54475058439965 65.84280736916676 A 209.6 209.6 0 0 1 342.54475058439965 65.84280736916676 L 361.5268503506398 147.50568442150004 A 125.76 125.76 0 0 0 361.5268503506398 147.50568442150004 Z" fill="rgb(158,251,139)" stroke="#ffffff" stroke-linejoin="round" stroke-width="0.5"/>
			<path class="highcharts-point highcharts-color-0" d="M 342.74893147062704 65.79545420624814 A 209.6 209.6 0 0 1 342.54475058439965 65.84280736916676 L 361.5268503506398 147.50568442150004 A 125.76 125.76 0 0 0 361.64935888237625 147.47727252374887 Z" fill="rgb(156,249,137)" stroke="#ffffff" stroke-linejoin="round" stroke-width="0.5"/>
			<path class="highcharts-point highcharts-color-1" d="M 342.74893147062704 65.79545420624814 A 209.6 209.6 0 0 1 342.74893147062687 65.7954542062482 L 361.64935888237613 147.4772725237489 A 125.76 125.76 0 0 0 361.64935888237625 147.47727252374887 Z" fill="rgb(154,247,135)" stroke="#ffffff" stroke-linejoin="round" stroke-width="0.5"/>
			<path class="highcharts-point highcharts-color-2" d="M 342.9531596079189 65.74830524785835 A 209.6 209.6 0 0 1 342.74893147062687 65.7954542062482 L 361.64935888237613 147.4772725237489 A 125.76 125.76 0 0 0 361.7718957647513 147.448983148715 Z" fill="rgb(152,245,133)" stroke="#ffffff" stroke-linejoin="round" stroke-width="0.5"/>
			<path class="highcharts-point highcharts-color-3" d="M 342.9531596079189 65.74830524785835 A 209.6 209.6 0 0 1 342.9531596079189 65.74830524785835 L 361.7718957647513 147.448983148715 A 125.76 125.76 0 0 0 361.7718957647513 147.448983148715 Z" fill="rgb(150,243,131)" stroke="#ffffff" stroke-linejoin="round" stroke-width="0.5"/>
			<path class="highcharts-point highcharts-color-4" d="M 343.1574347920474 65.70136054114627 A 209.6 209.6 0 0 1 342.9531596079189 65.74830524785835 L 361.7718957647513 147.448983148715 A 125.76 125.76 0 0 0 361.89446087522845 147.42081632468773 Z" fill="rgb(148,241,129)" stroke="#ffffff" stroke-linejoin="round" stroke-width="0.5"/>
			<path class="highcharts-point highcharts-color-5" d="M 343.1574347920474 65.70136054114627 A 209.6 209.6 0 0 1 343.1574347920474 65.70136054114627 L 361.89446087522845 147.42081632468773 A 125.76 125.76 0 0 0 361.89446087522845 147.42081632468773 Z" fill="rgb(146,239,127)" stroke="#ffffff" stroke-linejoin="round" stroke-width="0.5"/>
			<path class="highcharts-point highcharts-color-6" d="M 343.3617568187372 65.6546201330566 A 209.6 209.6 0 0 1 369.20234966529097 61.434380252748326 L 377.5214097991746 144.860628151649 A 125.76 125.76 0 0 0 362.0170540912423 147.39277207983395 Z" fill="rgb(255,214,143)" stroke="#ffffff" stroke-linejoin="round" stroke-width="0.5"/>
			<path class="highcharts-point highcharts-color-7" d="M 369.4109256491016 61.41368688868107 A 209.6 209.6 0 0 1 371.7065744486471 61.19983098283396 L 379.02394466918827 144.71989858970036 A 125.76 125.76 0 0 0 377.646555389461 144.84821213320865 Z" fill="rgb(255,188,117)" stroke="#ffffff" stroke-linejoin="round" stroke-width="0.5"/>
			<path class="highcharts-point highcharts-color-8" d="M 371.9153837295763 61.18164196040732 A 209.6 209.6 0 0 1 378.81498507539686 60.69864921330202 L 383.2889910452381 144.4191895279812 A 125.76 125.76 0 0 0 379.14923023774577 144.70898517624437 Z" fill="rgb(179,184,255)" stroke="#ffffff" stroke-linejoin="round" stroke-width="0.5"/>
			<path class="highcharts-point highcharts-color-9" d="M 379.024291983807 60.687568850908235 A 209.6 209.6 0 0 1 381.3273463178929 60.57950177188903 L 384.7964077907357 144.3477010631334 A 125.76 125.76 0 0 0 383.4145751902842 144.41254131054495 Z" fill="rgb(170,175,255)" stroke="#ffffff" stroke-linejoin="round" stroke-width="0.5"/>
			<path class="highcharts-point highcharts-color-0" d="M 381.5367711175441 60.57093382989274 A 209.6 209.6 0 0 1 382.1650954581255 60.546486611420846 L 385.2990572748753 144.3278919668525 A 125.76 125.76 0 0 0 384.9220626705265 144.34256029793565 Z" fill="rgb(162,167,255)" stroke="#ffffff" stroke-linejoin="round" stroke-width="0.5"/>
			<path class="highcharts-point highcharts-color-1" d="M 382.3745528540572 60.538756434932736 A 209.6 209.6 0 0 1 382.79349031279486 60.5239244731556 L 385.67609418767694 144.31435468389336 A 125.76 125.76 0 0 0 385.4247317124343 144.32325386095962 Z" fill="rgb(153,158,255)" stroke="#ffffff" stroke-linejoin="round" stroke-width="0.5"/>
			<path class="highcharts-point highcharts-color-2" d="M 383.00296995666366 60.51682270269853 A 209.6 209.6 0 0 1 383.00296995666343 60.51682270269853 L 385.80178197399806 144.3100936216191 A 125.76 125.76 0 0 0 385.8017819739982 144.3100936216191 Z" fill="rgb(145,150,250)" stroke="#ffffff" stroke-linejoin="round" stroke-width="0.5"/>
			<path class="highcharts-point highcharts-color-3" d="M 383.2124565975617 60.50993041540127 A 209.6 209.6 0 0 1 383.2124565975617 60.50993041540127 L 385.927473958537 144.30595824924075 A 125.76 125.76 0 0 0 385.927473958537 144.30595824924075 Z" fill="rgb(136,141,241)" stroke="#ffffff" stroke-linejoin="round" stroke-width="0.5"/>
			<path class="highcharts-point highcharts-color-4" d="M 383.4219500260028 60.503247618156166 A 209.6 209.6 0 0 1 388.241690335043 60.40737525589762 L 388.9450142010258 144.24442515353854 A 125.76 125.76 0 0 0 386.05317001560167 144.3019485708937 Z" fill="rgb(255,143,179)" stroke="#ffffff" stroke-linejoin="round" stroke-width="0.5"/>
			<path class="highcharts-point highcharts-color-5" d="M 388.45128380400985 60.40572174282934 A 209.6 209.6 0 0 1 389.080072664825 60.40201877475539 L 389.448043598895 144.24121126485323 A 125.76 125.76 0 0 0 389.07077028240593 144.2434330456976 Z" fill="rgb(255,136,172)" stroke="#ffffff" stroke-linejoin="round" stroke-width="0.5"/>
			<path class="highcharts-point highcharts-color-6" d="M 389.289671071081 60.401203646555416 A 209.6 209.6 0 0 1 389.289671071081 60.401203646555416 L 389.57380264264856 144.24072218793324 A 125.76 125.76 0 0 0 389.57380264264856 144.24072218793324 Z" fill="rgb(255,130,166)" stroke="#ffffff" stroke-linejoin="round" stroke-width="0.5"/>
			<path class="highcharts-point highcharts-color-7" d="M 389.4992701876658 60.40059811713431 A 209.6 209.6 0 0 1 389.4992701876658 60.40059811713431 L 389.6995621125995 144.2403588702806 A 125.76 125.76 0 0 0 389.6995621125995 144.2403588702806 Z" fill="rgb(255,123,159)" stroke="#ffffff" stroke-linejoin="round" stroke-width="0.5"/>
			<path class="highcharts-point highcharts-color-8" d="M 389.7088698049804 60.40020218709765 A 209.6 209.6 0 0 1 389.70886980498017 60.40020218709765 L 389.82532188298813 144.24012131225857 A 125.76 125.76 0 0 0 389.82532188298825 144.24012131225857 Z" fill="rgb(255,117,153)" stroke="#ffffff" stroke-linejoin="round" stroke-width="0.5"/>
			<path class="highcharts-point highcharts-color-9" d="M 389.91846971342494 60.40001585684132 A 209.6 209.6 0 0 1 389.70886980498017 60.40020218709765 L 389.82532188298813 144.24012131225857 A 125.76 125.76 0 0 0 389.95108182805495 144.24000951410477 Z" fill="rgb(255,111,147)" stroke="#ffffff" stroke-linejoin="round" stroke-width="0.5"/>
			<path class="highcharts-point highcharts-color-0" d="M 389.91846971342494 60.40001585684132 A 209.6 209.6 0 0 1 389.70886980498017 60.40020218709765 L 389.82532188298813 144.24012131225857 A 125.76 125.76 0 0 0 389.95108182805495 144.24000951410477 Z" fill="rgb(253,104,140)" stroke="#ffffff" stroke-linejoin="round" stroke-width="0.5"/>
			<path class="highcharts-point highcharts-color-1" d="M 389.91846971342494 60.40001585684132 A 209.6 209.6 0 0 1 389.70886980498017 60.40020218709765 L 389.82532188298813 144.24012131225857 A 125.76 125.76 0 0 0 389.95108182805495 144.24000951410477 Z" fill="rgb(247,98,134)" stroke="#ffffff" stroke-linejoin="round" stroke-width="0.5"/>
		</g>
		<g class="highcharts-markers highcharts-series-1 highcharts-pie-series highcharts-color-undefined " transform="translate(10,46) scale(1 1)"/>
	</g>
	<text class="highcharts-title" style="color:#333333;font-size:18px;fill:#333333;" text-anchor="middle" x="400" y="24">
		<tspan>Sales by country, 2016</tspan>
	</text>
	<g class="highcharts-data-labels highcharts-series-0 highcharts-pie-series highcharts-color-undefined " opacity="1" transform="translate(10,46) scale(1 1)">
		<g class="highcharts-label highcharts-data-label highcharts-data-label-color-0 " transform="translate(434,259)">
			<text style="font-size:11px;font-weight:bold;color:#ffffff;text-outline:1px contrast;fill:#ffffff;" x="5" y="16">
				<tspan class="highcharts-text-outline" fill="#000000" stroke="#000000" stroke-linejoin="round" stroke-width="2px" x="5" y="16">North America</tspan>
				<tspan class="highcharts-text-outline" dy="14" fill="#000000" stroke="#000000" stroke-linejoin="round" stroke-width="2px" x="5">49.9%</tspan>
				<tspan x="5" y="16">North America</tspan>
				<tspan dy="14" x="5">49.9%</tspan>
			</text>
		</g>
		<g class="highcharts-label highcharts-data-label highcharts-data-label-color-1 " transform="translate(287,304)">
			<text style="font-size:11px;font-weight:bold;color:#ffffff;text-outline:1px contrast;fill:#ffffff;" x="5" y="16">
				<tspan class="highcharts-text-outline" fill="#000000" stroke="#000000" stroke-linejoin="round" stroke-width="2px" x="5" y="16">Europe</tspan>
				<tspan class="highcharts-text-outline" dy="14" fill="#000000" stroke="#000000" stroke-linejoin="round" stroke-width="2px" x="5">33.7%</tspan>
				<tspan x="5" y="16">Europe</tspan>
				<tspan dy="14" x="5">33.7%</tspan>
			</text>
		</g>
		<g class="highcharts-label highcharts-data-label highcharts-data-label-color-2 " transform="translate(316,187)">
			<text style="font-size:11px;font-weight:bold;color:#ffffff;text-outline:1px contrast;fill:#ffffff;" x="5" y="16">
				<tspan class="highcharts-text-outline" fill="#000000" stroke="#000000" stroke-linejoin="round" stroke-width="2px" x="5" y="16">Asia</tspan>
				<tspan class="highcharts-text-outline" dy="14" fill="#000000" stroke="#000000" stroke-linejoin="round" stroke-width="2px" x="5">12.8%</tspan>
				<tspan x="5" y="16">Asia</tspan>
				<tspan dy="14" x="5">12.8%</tspan>
			</text>
		</g>
	</g>
	<g class="highcharts-data-labels highcharts-series-1 highcharts-pie-series highcharts-color-undefined " opacity="1" transform="translate(10,46) scale(1 1)">
		<path class="highcharts-data-label-connector highcharts-color-0" d="M 633.6663990774969 248.3692179183781 C 628.6663990774969 248.3692179183781 610.7365360416248 249.95667233185554 604.7599150296675 250.48582380301468 L 598.7832940177101 251.01497527417382" fill="none" stroke="rgb(175,232,255)" stroke-width="1"/>
		<path class="highcharts-data-label-connector highcharts-color-1" d="M 418.7985599173473 507.9151600587941 C 413.7985599173473 507.9151600587941 412.01068813724584 490.0041714066309 411.4147308772121 484.0338418559099 L 410.81877361717835 478.06351230518885" fill="none" stroke="rgb(171,228,255)" stroke-width="1"/>
		<path class="highcharts-data-label-connector highcharts-color-4" d="M 329.50792568050684 502.58536995641714 C 334.50792568050684 502.58536995641714 338.67677934390804 485.07478289792175 340.0663972317084 479.23792054508993 L 341.4560151195087 473.4010581922581" fill="none" stroke="rgb(118,118,123)" stroke-width="1"/>
		<path class="highcharts-data-label-connector highcharts-color-5" d="M 238.90897560165362 459.4093799427552 C 243.90897560165362 459.4093799427552 254.88409429602024 445.14239814405073 258.54246719414243 440.38673754448257 L 262.2008400922646 435.6310769449144" fill="none" stroke="rgb(116,116,121)" stroke-width="1"/>
		<path class="highcharts-data-label-connector highcharts-color-6" d="M 184.5723634441583 400.78946075233694 C 189.5723634441583 400.78946075233694 204.62953146588268 390.9263126156839 209.6485874731241 387.6385965701329 L 214.66764348036554 384.3508805245819" fill="none" stroke="rgb(115,115,120)" stroke-width="1"/>
		<path class="highcharts-data-label-connector highcharts-color-7" d="M 158.13470205055992 346.5733195490617 C 163.13470205055992 346.5733195490617 180.17800490151956 340.78317033419063 185.85910585183942 338.8531205959003 L 191.54020680215928 336.92307085760996" fill="none" stroke="rgb(113,113,118)" stroke-width="1"/>
		<path class="highcharts-data-label-connector highcharts-color-8" d="M 149.94436864499326 315.94362354833197 C 154.94436864499326 315.94362354833197 171.51542585868046 306.5277039834533 177.4310731729761 305.52514882144646 L 183.34672048727177 304.5225936594396" fill="none" stroke="rgb(112,112,117)" stroke-width="1"/>
		<path class="highcharts-data-label-connector highcharts-color-9" d="M 146.54967705007383 292.94362354833197 C 151.54967705007383 292.94362354833197 168.96519847760518 285.3169692405192 174.9498952697278 284.88871195061347 L 180.9345920618504 284.46045466070774" fill="none" stroke="rgb(111,111,116)" stroke-width="1"/>
		<path class="highcharts-data-label-connector highcharts-color-0" d="M 145.4004106886922 269.94362354833197 C 150.4004106886922 269.94362354833197 168.4000027336617 269.5348074541599 174.4000026596456 269.53386501406527 L 180.4000025856295 269.53292257397067" fill="none" stroke="rgb(109,109,114)" stroke-width="1"/>
		<path class="highcharts-data-label-connector highcharts-color-1" d="M 146.4641119634812 246.94362354833194 C 151.4641119634812 246.94362354833194 168.90385341535713 254.5650086902559 174.89021117486914 254.96938571127785 L 180.87656893438114 255.3737627322998" fill="none" stroke="rgb(108,108,113)" stroke-width="1"/>
		<path class="highcharts-data-label-connector highcharts-color-2" d="M 196.21600204535952 121.95759214292902 C 201.21600204535952 121.95759214292902 215.39843928736084 133.04174632250866 220.12591836802798 136.73646438236852 L 224.85339744869512 140.4311824422284" fill="none" stroke="rgb(195,255,176)" stroke-width="1"/>
		<path class="highcharts-data-label-connector highcharts-color-3" d="M 216.76266763883828 98.9 C 221.76266763883828 98.9 246.51633084821742 100.62431588075859 250.40126773860865 105.19676220167668 L 254.28620462899988 109.76920852259477" fill="none" stroke="rgb(192,255,173)" stroke-width="1"/>
		<path class="highcharts-data-label-connector highcharts-color-4" d="M 243.836265280349 75.9 C 248.836265280349 75.9 272.3190238810911 81.72953411225504 275.5053318987511 86.81357199730229 L 278.6916399164111 91.89760988234954" fill="none" stroke="rgb(190,255,171)" stroke-width="1"/>
		<path class="highcharts-data-label-connector highcharts-color-5" d="M 282.56660700728503 52.900000000000006 C 287.56660700728503 52.900000000000006 291.9446033769969 70.77481489980809 294.59953288845 76.15546070576997 L 297.25446239990316 81.53610651173184" fill="none" stroke="rgb(188,255,169)" stroke-width="1"/>
		<path class="highcharts-data-label-connector highcharts-color-6" d="M 346.3976366862834 29.900000000000006 C 351.3976366862834 29.900000000000006 354.2976472858114 50.794942878149996 355.2643174856541 56.71655994823619 L 356.23098768549676 62.63817701832238" fill="none" stroke="rgb(255,214,143)" stroke-width="1"/>
		<g class="highcharts-label highcharts-data-label highcharts-data-label-color-0 " transform="translate(639,238)">
			<text style="font-size:11px;font-weight:bold;color:#000000;text-outline:1px contrast;fill:#000000;" x="5" y="16">
				<tspan class="highcharts-text-outline" fill="#FFFFFF" stroke="#FFFFFF" stroke-linejoin="round" stroke-width="2px" style="font-weight: bold;" x="5" y="16">US:</tspan>
				<tspan class="highcharts-text-outline" dx="0" fill="#FFFFFF" stroke="#FFFFFF" stroke-linejoin="round" stroke-width="2px">47.2%</tspan>
				<tspan style="font-weight:bold" x="5" y="16">US:</tspan>
				<tspan dx="0">47.2%</tspan>
			</text>
		</g>
		<g class="highcharts-label highcharts-data-label highcharts-data-label-color-1 " transform="translate(424,498)">
			<text style="font-size:11px;font-weight:bold;color:#000000;text-outline:1px contrast;fill:#000000;" x="5" y="16">
				<tspan class="highcharts-text-outline" fill="#FFFFFF" stroke="#FFFFFF" stroke-linejoin="round" stroke-width="2px" style="font-weight: bold;" x="5" y="16">CA:</tspan>
				<tspan class="highcharts-text-outline" dx="0" fill="#FFFFFF" stroke="#FFFFFF" stroke-linejoin="round" stroke-width="2px">2.5%</tspan>
				<tspan style="font-weight:bold" x="5" y="16">CA:</tspan>
				<tspan dx="0">2.5%</tspan>
			</text>
		</g>
		<g class="highcharts-label highcharts-data-label highcharts-data-label-color-4 " transform="translate(267,493)">
			<text style="font-size:11px;font-weight:bold;color:#000000;text-outline:1px contrast;fill:#000000;" x="5" y="16">
				<tspan class="highcharts-text-outline" fill="#FFFFFF" stroke="#FFFFFF" stroke-linejoin="round" stroke-width="2px" style="font-weight: bold;" x="5" y="16">DE:</tspan>
				<tspan class="highcharts-text-outline" dx="0" fill="#FFFFFF" stroke="#FFFFFF" stroke-linejoin="round" stroke-width="2px">7.6%</tspan>
				<tspan style="font-weight:bold" x="5" y="16">DE:</tspan>
				<tspan dx="0">7.6%</tspan>
			</text>
		</g>
		<g class="highcharts-label highcharts-data-label highcharts-data-label-color-5 " transform="translate(177,449)">
			<text style="font-size:11px;font-weight:bold;color:#000000;text-outline:1px contrast;fill:#000000;" x="5" y="16">
				<tspan class="highcharts-text-outline" fill="#FFFFFF" stroke="#FFFFFF" stroke-linejoin="round" stroke-width="2px" style="font-weight: bold;" x="5" y="16">GB:</tspan>
				<tspan class="highcharts-text-outline" dx="0" fill="#FFFFFF" stroke="#FFFFFF" stroke-linejoin="round" stroke-width="2px">5.8%</tspan>
				<tspan style="font-weight:bold" x="5" y="16">GB:</tspan>
				<tspan dx="0">5.8%</tspan>
			</text>
		</g>
		<g class="highcharts-label highcharts-data-label highcharts-data-label-color-6 " transform="translate(123,391)">
			<text style="font-size:11px;font-weight:bold;color:#000000;text-outline:1px contrast;fill:#000000;" x="5" y="16">
				<tspan class="highcharts-text-outline" fill="#FFFFFF" stroke="#FFFFFF" stroke-linejoin="round" stroke-width="2px" style="font-weight: bold;" x="5" y="16">FR:</tspan>
				<tspan class="highcharts-text-outline" dx="0" fill="#FFFFFF" stroke="#FFFFFF" stroke-linejoin="round" stroke-width="2px">4.9%</tspan>
				<tspan style="font-weight:bold" x="5" y="16">FR:</tspan>
				<tspan dx="0">4.9%</tspan>
			</text>
		</g>
		<g class="highcharts-label highcharts-data-label highcharts-data-label-color-7 " transform="translate(101,337)">
			<text style="font-size:11px;font-weight:bold;color:#000000;text-outline:1px contrast;fill:#000000;" x="5" y="16">
				<tspan class="highcharts-text-outline" fill="#FFFFFF" stroke="#FFFFFF" stroke-linejoin="round" stroke-width="2px" style="font-weight: bold;" x="5" y="16">FI:</tspan>
				<tspan class="highcharts-text-outline" dx="0" fill="#FFFFFF" stroke="#FFFFFF" stroke-linejoin="round" stroke-width="2px">3.2%</tspan>
				<tspan style="font-weight:bold" x="5" y="16">FI:</tspan>
				<tspan dx="0">3.2%</tspan>
			</text>
		</g>
		<g class="highcharts-label highcharts-data-label highcharts-data-label-color-8 " transform="translate(86,306)">
			<text style="font-size:11px;font-weight:bold;color:#000000;text-outline:1px contrast;fill:#000000;" x="5" y="16">
				<tspan class="highcharts-text-outline" fill="#FFFFFF" stroke="#FFFFFF" stroke-linejoin="round" stroke-width="2px" style="font-weight: bold;" x="5" y="16">CH:</tspan>
				<tspan class="highcharts-text-outline" dx="0" fill="#FFFFFF" stroke="#FFFFFF" stroke-linejoin="round" stroke-width="2px">1.9%</tspan>
				<tspan style="font-weight:bold" x="5" y="16">CH:</tspan>
				<tspan dx="0">1.9%</tspan>
			</text>
		</g>
		<g class="highcharts-label highcharts-data-label highcharts-data-label-color-9 " transform="translate(85,283)">
			<text style="font-size:11px;font-weight:bold;color:#000000;text-outline:1px contrast;fill:#000000;" x="5" y="16">
				<tspan class="highcharts-text-outline" fill="#FFFFFF" stroke="#FFFFFF" stroke-linejoin="round" stroke-width="2px" style="font-weight: bold;" x="5" y="16">NL:</tspan>
				<tspan class="highcharts-text-outline" dx="0" fill="#FFFFFF" stroke="#FFFFFF" stroke-linejoin="round" stroke-width="2px">1.2%</tspan>
				<tspan style="font-weight:bold" x="5" y="16">NL:</tspan>
				<tspan dx="0">1.2%</tspan>
			</text>
		</g>
		<g class="highcharts-label highcharts-data-label highcharts-data-label-color-0 " transform="translate(81,260)">
			<text style="font-size:11px;font-weight:bold;color:#000000;text-outline:1px contrast;fill:#000000;" x="5" y="16">
				<tspan class="highcharts-text-outline" fill="#FFFFFF" stroke="#FFFFFF" stroke-linejoin="round" stroke-width="2px" style="font-weight: bold;" x="5" y="16">NO:</tspan>
				<tspan class="highcharts-text-outline" dx="0" fill="#FFFFFF" stroke="#FFFFFF" stroke-linejoin="round" stroke-width="2px">1.1%</tspan>
				<tspan style="font-weight:bold" x="5" y="16">NO:</tspan>
				<tspan dx="0">1.1%</tspan>
			</text>
		</g>
		<g class="highcharts-label highcharts-data-label highcharts-data-label-color-1 " transform="translate(86,237)">
			<text style="font-size:11px;font-weight:bold;color:#000000;text-outline:1px contrast;fill:#000000;" x="5" y="16">
				<tspan class="highcharts-text-outline" fill="#FFFFFF" stroke="#FFFFFF" stroke-linejoin="round" stroke-width="2px" style="font-weight: bold;" x="5" y="16">SE:</tspan>
				<tspan class="highcharts-text-outline" dx="0" fill="#FFFFFF" stroke="#FFFFFF" stroke-linejoin="round" stroke-width="2px">1.0%</tspan>
				<tspan style="font-weight:bold" x="5" y="16">SE:</tspan>
				<tspan dx="0">1.0%</tspan>
			</text>
		</g>
		<g class="highcharts-label highcharts-data-label highcharts-data-label-color-2 " transform="translate(137,112)">
			<text style="font-size:11px;font-weight:bold;color:#000000;text-outline:1px contrast;fill:#000000;" x="5" y="16">
				<tspan class="highcharts-text-outline" fill="#FFFFFF" stroke="#FFFFFF" stroke-linejoin="round" stroke-width="2px" style="font-weight: bold;" x="5" y="16">JP:</tspan>
				<tspan class="highcharts-text-outline" dx="0" fill="#FFFFFF" stroke="#FFFFFF" stroke-linejoin="round" stroke-width="2px">3.8%</tspan>
				<tspan style="font-weight:bold" x="5" y="16">JP:</tspan>
				<tspan dx="0">3.8%</tspan>
			</text>
		</g>
		<g class="highcharts-label highcharts-data-label highcharts-data-label-color-3 " transform="translate(154,89)">
			<text style="font-size:11px;font-weight:bold;color:#000000;text-outline:1px contrast;fill:#000000;" x="5" y="16">
				<tspan class="highcharts-text-outline" fill="#FFFFFF" stroke="#FFFFFF" stroke-linejoin="round" stroke-width="2px" style="font-weight: bold;" x="5" y="16">KR:</tspan>
				<tspan class="highcharts-text-outline" dx="0" fill="#FFFFFF" stroke="#FFFFFF" stroke-linejoin="round" stroke-width="2px">2.7%</tspan>
				<tspan style="font-weight:bold" x="5" y="16">KR:</tspan>
				<tspan dx="0">2.7%</tspan>
			</text>
		</g>
		<g class="highcharts-label highcharts-data-label highcharts-data-label-color-4 " transform="translate(187,66)">
			<text style="font-size:11px;font-weight:bold;color:#000000;text-outline:1px contrast;fill:#000000;" x="5" y="16">
				<tspan class="highcharts-text-outline" fill="#FFFFFF" stroke="#FFFFFF" stroke-linejoin="round" stroke-width="2px" style="font-weight: bold;" x="5" y="16">IL:</tspan>
				<tspan class="highcharts-text-outline" dx="0" fill="#FFFFFF" stroke="#FFFFFF" stroke-linejoin="round" stroke-width="2px">1.9%</tspan>
				<tspan style="font-weight:bold" x="5" y="16">IL:</tspan>
				<tspan dx="0">1.9%</tspan>
			</text>
		</g>
		<g class="highcharts-label highcharts-data-label highcharts-data-label-color-5 " transform="translate(223,43)">
			<text style="font-size:11px;font-weight:bold;color:#000000;text-outline:1px contrast;fill:#000000;" x="5" y="16">
				<tspan class="highcharts-text-outline" fill="#FFFFFF" stroke="#FFFFFF" stroke-linejoin="round" stroke-width="2px" style="font-weight: bold;" x="5" y="16">IN:</tspan>
				<tspan class="highcharts-text-outline" dx="0" fill="#FFFFFF" stroke="#FFFFFF" stroke-linejoin="round" stroke-width="2px">1.3%</tspan>
				<tspan style="font-weight:bold" x="5" y="16">IN:</tspan>
				<tspan dx="0">1.3%</tspan>
			</text>
		</g>
		<g class="highcharts-label highcharts-data-label highcharts-data-label-color-6 " transform="translate(283,20)">
			<text style="font-size:11px;font-weight:bold;color:#000000;text-outline:1px contrast;fill:#000000;" x="5" y="16">
				<tspan class="highcharts-text-outline" fill="#FFFFFF" stroke="#FFFFFF" stroke-linejoin="round" stroke-width="2px" style="font-weight: bold;" x="5" y="16">AU:</tspan>
				<tspan class="highcharts-text-outline" dx="0" fill="#FFFFFF" stroke="#FFFFFF" stroke-linejoin="round" stroke-width="2px">2.0%</tspan>
				<tspan style="font-weight:bold" x="5" y="16">AU:</tspan>
				<tspan dx="0">2.0%</tspan>
			</text>
		</g>
	</g>
	<g class="highcharts-legend">
		<rect class="highcharts-legend-box" fill="none" height="8" rx="0" ry="0" visibility="hidden" width="8" x="0" y="0"/>
		<g>
			<g/>
		</g>
	</g>
	<text class="highcharts-credits" style="cursor:pointer;color:#999999;font-size:9px;fill:#999999;" text-anchor="end" x="790" y="595">Highcharts.com</text>
</svg>